<?xml version="1.0"?>
<!DOCTYPE svg PUBLIC "-//W3C//DTD SVG 1.1//EN" "http://www.w3.org/Graphics/SVG/1.1/DTD/svg11.dtd">
<svg id="svg" xmlns="http://www.w3.org/2000/svg" xmlns:xlink="http://www.w3.org/1999/xlink" width="1920" height="1080" x="50%" y="25%">
	<rect width="1920" height="1080" style="fill:#F2F2F2;stroke-width:0;stroke:rgb(255,255,255)"/>
	<path style="fill:#E2E2E2;fill-rule:evenodd;stroke:#F2F2F2;stroke-width:0px;stroke-linecap:butt;stroke-linejoin:miter;opacity:1" d=" M -1262.1650514438475,10221.473460689089 L -1262.1650514438475,-9278.473460689089  L 959.7777834948556,470.5250026539311  L 959.7777834948556,472.4749973460689 Z M -2469.5773038758775,9865.008371036854 L -29.2516385166698,-9479.448758570315  L 959.9010748361484,470.50490512414297  L 959.6570422696124,472.4393508371037 Z M -3613.951752199222,9364.13545685719 L 1228.8609367791612,-9524.885036435633  L 960.026886093678,470.50036149635645  L 959.54260482478,472.3892635456857 Z M -4695.008085618508,8718.977405339727 L 2473.059833515068,-9413.369748266963  L 960.1513059833516,470.5115130251733  L 959.4344991914381,472.32474774053395 Z M -5693.730851800245,7936.609895493943 L 3712.430024872279,-9142.246874043522  L 960.2752430024872,470.5386253125956  L 959.33462691482,472.2465109895494 Z M -6572.526815440151,7048.812503954411 L 4889.5459782446815,-8724.07874224679  L 960.3929545978244,470.58044212577533  L 959.246747318456,472.15773125039544 Z M -7333.780217443926,6058.378350629785 L 6013.771833007952,-8157.485471067583  L 960.5053771833008,470.63710145289326  L 959.1706219782556,472.058687835063 Z M -7970.011273299722,4972.044262502021 L 7050.157086410135,-7460.081599078989  L 960.609015708641,470.7068418400921  L 959.10699887267,471.9500544262502 Z M -8464.709535007158,3814.3805214582744 L 7998.447879257572,-6632.037953088911  L 960.7038447879257,470.7896462046911  L 959.0575290464993,471.83428805214584 Z M -8807.9475526996,2613.2751067070326 L 8835.18548764292,-5691.409502436195  L 960.7875185487643,470.88370904975636  L 959.0232052447301,471.7141775106707 Z M -8999.641251342091,1369.0222251091946 L 9542.099768931092,-4661.487780631562  L 960.8582099768931,470.98670122193687  L 959.0040358748657,471.5897522225109 Z M -9033.483429770671,110.54440868851134 L 10119.017566770384,-3542.525063647648  L 960.915901756677,471.0985974936352  L 959.0006516570229,471.4639044408689 Z M -8908.937719337366,-1142.2125803067308 L 10550.773022905272,-2359.943593489453  L 960.9590773022906,471.21685564065103  L 959.0131062280662,471.33862874196933 Z M -8630.747797447939,-2360.0290367127627 L 10830.523194563859,-1132.4862423278114  L 960.9870523194564,471.33960137576724  L 959.0409252202552,471.2168470963287 Z M -8198.981805818055,-3542.6066603534377 L 10953.486645095038,110.63343974936305  L 960.9993486645095,471.4639133439749  L 959.0841018194182,471.09858933396464 Z M -7622.0540392632865,-4661.564237584089 L 10919.633255001936,1369.1109546231753  L 960.9959633255002,471.58976109546234  L 959.1417945960736,470.9866935762416 Z M -6915.13058252303,-5691.479661511994 L 10727.928471429856,2613.3621283896878  L 960.976792847143,471.71418621283897  L 959.2124869417477,470.8837020338488 Z M -6078.384594196482,-6632.100657707162 L 10384.679753210748,3814.4644852165857  L 960.942467975321,471.8342964485217  L 959.2961615405803,470.7896399342293 Z M -5137.829257349829,-7454.184724249914 L 9889.971178000626,4972.123818991999  L 960.8929971178001,471.9500623818992  L 959.390217074265,470.707431527575 Z M -4093.694957950661,-8157.530494324612 L 9253.730444117231,6058.452238951305  L 960.8293730444117,472.05869522389514  L 959.4946305042049,470.6370969505675 Z M -2969.464055503427,-8724.113749854143 L 8486.041405439537,7056.232398785062  L 960.752604140544,472.1584732398785  L 959.6070535944497,470.5804386250146 Z M -1792.3443767554,-9142.271394813948 L 7606.370969716851,7943.163331073281  L 960.6646370969717,472.2471663331073  L 959.7247655623245,470.5386228605186 Z M -552.9717700380315,-9413.383227588882 L 6614.934609358457,8719.027784971682  L 960.5654934609358,472.32475277849716  L 959.8487028229962,470.5115116772411 Z M 691.2281201281892,-9524.887431296876 L 5542.554600061257,9359.705293390642  L 960.4582554600062,472.38882052933906  L 959.9731228120128,470.5003612568703 Z M 1949.340290586373,-9479.439945021399 L 4389.493617817174,9865.038924460327  L 960.3429493617817,472.43935389244604  L 960.0989340290587,470.50490600549784 Z M 3182.251912993741,-9278.45366323326 L 3191.5986064252224,10219.318610325134  L 960.2231598606426,472.4747818610325  L 960.2222251912993,470.5250046336767 Z M 4389.6609896623795,-8921.977816867833 L 1949.162986368451,10422.457571329438  L 960.0989162986368,472.49509575713296  L 960.3429660989663,470.56065221831324 Z M 5534.030975708493,-8421.09470757884 L 681.2880437091733,10467.615227698236  L 959.9721288043709,472.49961152276984  L 960.4574030975708,470.6107405292421 Z M 6615.081561429729,-7775.927025053177 L -562.8003537619729,10354.873871435928  L 959.8477199646238,472.4883373871436  L 960.565508156143,470.6752572974947 Z M 7606.50409741724,-7000.0449060429155 L -1792.5156727707008,10085.222352510065  L 959.7247484327229,472.461372235251  L 960.6646504097417,470.7528455093957 Z M 8492.585411827728,-6105.745397088367 L -2969.6279006740524,9667.043733909595  L 959.6070372099326,472.41955437339095  L 960.7532585411827,470.84227546029115 Z M 9253.829990112354,-5115.304461864843 L -4093.848707664134,9100.440447125682  L 959.4946151292336,472.36289404471256  L 960.8293829990113,470.9413195538135 Z M 9890.051367890057,-4028.964705654843 L -5130.227747916714,8403.027342101603  L 959.3909772252083,472.29315273421014  L 960.893005136789,471.0499535294345 Z M 10384.739316055542,-2871.2965574346435 L -6078.511163760029,7574.975247906861  L 959.296148883624,472.2103475247907  L 960.9424739316056,471.16572034425656 Z M 10727.966633194073,-1670.1880848543874 L -6915.240392137768,6634.339342871253  L 959.2124759607863,472.11628393428714  L 960.9767966633194,471.28583119151455 Z M 10919.64924689176,-425.9334955239782 L -7622.145497917745,5604.411323271636  L 959.1417854502082,472.01329113232714  L 960.9959649246891,471.4102566504476 Z M 10953.828030973773,822.7851937142603 L -8199.053326995774,4485.443466623271  L 959.0840946673004,471.9013943466623  L 960.9993828030974,471.5351285193714 Z M 10828.923342525246,2085.3005017226683 L -8630.798247601399,3302.8581500414157  L 959.0409201752399,471.78313581500413  L 960.9868923342525,471.6613800501723 Z M 10550.7225712294,3303.1144797113375 L -8910.537483941558,2075.3983066593255  L 959.0129462516059,471.6603898306659  L 960.9590722571229,471.7831614479711 Z M 10118.946044138791,4485.688256740633 L -9033.489859626234,832.2775291611438  L 959.0006510140374,471.5360777529161  L 960.9158946044139,471.90141882567406 Z M 9542.008308914335,5604.64069412921 L -8999.6252578713,-426.1996840659142  L 959.0040374742129,471.4102300315934  L 960.8582008308914,472.0133140694129 Z M 8835.0756767781,6634.549820098645 L -8809.996478567287,-1660.9091560445895  L 959.0230003521433,471.28675908439556  L 960.7875075676778,472.11630498200986 Z M 7998.321308576765,7575.16336176161 L -8464.649970666313,-2871.54844870957  L 959.0575350029334,471.165695155129  L 960.7038321308577,472.21036633617615 Z M 7057.758647894306,8397.239048948697 L -7969.931081992769,-4029.2033751247673  L 959.1070068918008,471.0499296624875  L 960.6097758647894,472.2925739048949 Z M 6005.18884251951,9105.506575357505 L -7333.680670132275,-5115.526126829395  L 959.1706319329868,470.94129738731704  L 960.504518884252,472.36340065753575 Z M 4889.382132450297,9667.14875673165 L -6565.982742351195,-6113.299447350844  L 959.2474017257649,470.84152005526494  L 960.392938213245,472.4195648756732 Z M 3712.2587284200717,10085.295914821343 L -5686.304405075384,-7000.2225426989435  L 959.3353695594925,470.7528277457301  L 960.275225872842,472.4613795914821 Z M 2482.5362029470407,10354.91456738083 L -4694.861132649582,-7776.078163949043  L 959.4345138867351,470.6752421836051  L 960.1522536202947,472.48834145673806 Z M 1228.6828229431285,10467.88982536472 L -3622.475415656544,-8416.746118605368  L 959.5417524584343,470.6111753881395  L 960.0268682822943,472.49963898253645 Z M -29.428942577553585,10422.43113068269 L -2469.409931486276,-8922.069477138246  L 959.6570590068513,470.5606430522862  L 959.9010571057422,472.49509311306826 Z" />
	<defs>
	    <radialGradient id="grad1" cx="50%" cy="50%" r="50%" fx="50%" fy="50%">
	      <stop offset="0%" style="stop-color:rgb(255,255,255);
	      stop-opacity:0" />
	      <stop offset="100%" style="stop-color:rgb(255,255,255);stop-opacity:1" />
	    </radialGradient>
  </defs>
  <ellipse cx="50%" cy="50%" rx="100%" ry="100%" fill="url(#grad1)" />
</svg>